# xmcd
#
# Track frame offsets:
#	150
#	38048
#	73258
#	98257
#	115319
#	148455
#	172282
#
# Disc length: 2531 seconds
#
# Revision: 1
# Processed by: cddbd v1.5.1PL2 Copyright (c) Steve Scherf et al.
# Submitted via: EasyCDDAExtractor 9.0.0.1
#
DISCID=6709e107
DTITLE=Black Sabbath - Estadio Ramon Valero 14-09-83 Disc 2 Source 2
DYEAR=1983
DGENRE=Hard Rock
TTITLE0=Iron Man
TTITLE1=The Dark - Zero The Hero
TTITLE2=Guitar Solo
TTITLE3=Digital Bitch
TTITLE4=Black Sabbath
TTITLE5=Smoke On The Water
TTITLE6=Paranoid
EXTD=
EXTT0=
EXTT1=
EXTT2=
EXTT3=
EXTT4=
EXTT5=
EXTT6=
PLAYORDER=
